<svg width="320" height="512" xmlns="http://www.w3.org/2000/svg" xmlns:xlink="http://www.w3.org/1999/xlink" xml:space="preserve" overflow="hidden"><defs><clipPath id="clip0"><rect x="492" y="120" width="320" height="512"/></clipPath></defs><g clip-path="url(#clip0)" transform="translate(-492 -120)"><path d="M646.3 629.7C649.425 632.825 654.488 632.825 657.61 629.7L809.61 477.7C811.2 476.1 812 474.1 812 472 812 469.9 811.219 467.906 809.656 466.344 806.531 463.219 801.468 463.219 798.346 466.344L660 604.7 660 128C660 123.594 656.4 120 652 120 647.6 120 644 123.594 644 128L644 604.7 505.7 466.4C502.575 463.275 497.512 463.275 494.39 466.4 491.268 469.525 491.265 474.588 494.39 477.71L646.3 629.7Z" fill="#FF0000"/></g></svg>