<svg width="320" height="512" xmlns="http://www.w3.org/2000/svg" xmlns:xlink="http://www.w3.org/1999/xlink" xml:space="preserve" overflow="hidden"><defs><clipPath id="clip0"><rect x="903" y="139" width="320" height="512"/></clipPath></defs><g clip-path="url(#clip0)" transform="translate(-903 -139)"><path d="M1057.3 648.7C1060.43 651.825 1065.49 651.825 1068.61 648.7L1220.61 496.7C1222.2 495.1 1223 493.1 1223 491 1223 488.9 1222.22 486.906 1220.66 485.344 1217.53 482.219 1212.47 482.219 1209.35 485.344L1071 623.7 1071 147C1071 142.594 1067.4 139 1063 139 1058.6 139 1055 142.594 1055 147L1055 623.7 916.7 485.4C913.575 482.275 908.512 482.275 905.39 485.4 902.268 488.525 902.265 493.588 905.39 496.71L1057.3 648.7Z" fill="#70AD47"/></g></svg>