<?xml version="1.0" encoding="utf-8"?>
<!-- Svg Vector Icons : http://www.onlinewebfonts.com/icon -->
<!DOCTYPE svg PUBLIC "-//W3C//DTD SVG 1.1//EN" "http://www.w3.org/Graphics/SVG/1.1/DTD/svg11.dtd">
<svg version="1.1" xmlns="http://www.w3.org/2000/svg" xmlns:xlink="http://www.w3.org/1999/xlink" x="0px" y="0px" viewBox="0 0 1000 1000" enable-background="new 0 0 1000 1000" xml:space="preserve">
<g><path fill="#FFFFFF" d="M538.7,500L980.5,58.2c6-6,9.5-14.1,9.5-22.3c0-7.1-2.7-13.7-7.5-18.5c-4.8-4.8-11.4-7.5-18.5-7.5c-8.1,0-16.2,3.5-22.2,9.5L500,461.3L58.2,19.5c-6-6-14.1-9.5-22.2-9.5c-7.1,0-13.7,2.7-18.5,7.5C12.7,22.2,10,28.8,10,36c0,8.1,3.5,16.1,9.5,22.2L461.3,500L19.5,941.8c-5.8,5.8-9.1,13.2-9.5,20.9c-0.3,7.6,2.3,14.7,7.4,19.8c4.8,4.8,11.4,7.4,18.5,7.4c8.1,0,16.2-3.4,22.2-9.5L500,538.7l441.8,441.8c11.3,11.3,30.4,12.2,40.7,2c10.7-10.7,9.8-28.9-2-40.7L538.7,500z"/></g>
</svg>